<svg width="179" height="66" viewBox="0 0 179 66" fill="none" xmlns="http://www.w3.org/2000/svg">
<path d="M34.9463 32.8604C34.9463 35.5771 34.4766 37.9639 33.5371 40.0205C32.5977 42.0645 31.252 43.6387 29.5 44.7432C27.7607 45.835 25.7549 46.3809 23.4824 46.3809C21.2354 46.3809 19.2295 45.835 17.4648 44.7432C15.7129 43.6387 14.3545 42.0708 13.3896 40.0396C12.4375 38.0083 11.9551 35.666 11.9424 33.0127V31.4512C11.9424 28.7471 12.4185 26.3604 13.3706 24.291C14.3354 22.2217 15.6875 20.6411 17.4268 19.5493C19.1787 18.4448 21.1846 17.8926 23.4443 17.8926C25.7041 17.8926 27.7036 18.4385 29.4429 19.5303C31.1948 20.6094 32.5469 22.1709 33.499 24.2148C34.4512 26.2461 34.9336 28.6138 34.9463 31.3179V32.8604ZM30.1284 31.4131C30.1284 28.3408 29.5444 25.9858 28.3765 24.3481C27.2212 22.7104 25.5771 21.8916 23.4443 21.8916C21.3623 21.8916 19.731 22.7104 18.5503 24.3481C17.3823 25.9731 16.7856 28.2773 16.7603 31.2607V32.8604C16.7603 35.9072 17.3506 38.2622 18.5312 39.9253C19.7246 41.5884 21.375 42.4199 23.4824 42.4199C25.6152 42.4199 27.2529 41.6074 28.3955 39.9824C29.5508 38.3574 30.1284 35.9834 30.1284 32.8604V31.4131ZM45.0962 20.3872V25.3955H48.7334V28.8232H45.0962V40.3252C45.0962 41.1123 45.2485 41.6836 45.5532 42.0391C45.8706 42.3818 46.4292 42.5532 47.229 42.5532C47.7622 42.5532 48.3018 42.4897 48.8477 42.3628V45.9429C47.7939 46.2349 46.7783 46.3809 45.8008 46.3809C42.2461 46.3809 40.4688 44.4194 40.4688 40.4966V28.8232H37.0791V25.3955H40.4688V20.3872H45.0962ZM64.5962 46C64.3931 45.6064 64.2153 44.9653 64.063 44.0767C62.5903 45.6128 60.7876 46.3809 58.6548 46.3809C56.5854 46.3809 54.897 45.7905 53.5894 44.6099C52.2817 43.4292 51.6279 41.9692 51.6279 40.23C51.6279 38.0337 52.4404 36.3516 54.0654 35.1836C55.7031 34.0029 58.0391 33.4126 61.0732 33.4126H63.9106V32.0605C63.9106 30.9941 63.6123 30.1436 63.0156 29.5088C62.4189 28.8613 61.5112 28.5376 60.2925 28.5376C59.2388 28.5376 58.3755 28.8042 57.7026 29.3374C57.0298 29.8579 56.6934 30.5244 56.6934 31.3369H52.0659C52.0659 30.207 52.4404 29.1533 53.1895 28.1758C53.9385 27.1855 54.9541 26.4111 56.2363 25.8525C57.5312 25.2939 58.9722 25.0146 60.5591 25.0146C62.9712 25.0146 64.8945 25.624 66.3291 26.8428C67.7637 28.0488 68.5 29.75 68.5381 31.9463V41.2393C68.5381 43.0928 68.7983 44.5718 69.3188 45.6763V46H64.5962ZM59.5117 42.6675C60.4258 42.6675 61.2827 42.4453 62.0825 42.001C62.895 41.5566 63.5044 40.96 63.9106 40.2109V36.3262H61.416C59.7021 36.3262 58.4136 36.6245 57.5503 37.2212C56.687 37.8179 56.2554 38.6621 56.2554 39.7539C56.2554 40.6426 56.5474 41.3535 57.1313 41.8867C57.728 42.4072 58.5215 42.6675 59.5117 42.6675ZM84.1724 29.623C83.563 29.5215 82.9346 29.4707 82.2871 29.4707C80.167 29.4707 78.7388 30.2832 78.0024 31.9082V46H73.375V25.3955H77.793L77.9072 27.6997C79.0244 25.9097 80.5732 25.0146 82.5537 25.0146C83.2139 25.0146 83.7598 25.1035 84.1914 25.2812L84.1724 29.623ZM95.7886 46.3809C92.856 46.3809 90.4756 45.4604 88.6475 43.6196C86.832 41.7661 85.9243 39.3032 85.9243 36.231V35.6597C85.9243 33.603 86.3179 31.7686 87.105 30.1562C87.9048 28.5312 89.022 27.2681 90.4565 26.3667C91.8911 25.4653 93.4907 25.0146 95.2554 25.0146C98.061 25.0146 100.226 25.9097 101.749 27.6997C103.285 29.4897 104.053 32.0225 104.053 35.2979V37.1641H90.5898C90.7295 38.8652 91.2944 40.2109 92.2847 41.2012C93.2876 42.1914 94.5444 42.6865 96.0552 42.6865C98.1753 42.6865 99.9019 41.8296 101.235 40.1157L103.729 42.4961C102.904 43.7275 101.8 44.686 100.416 45.3716C99.0449 46.0444 97.5024 46.3809 95.7886 46.3809ZM95.2363 28.728C93.9668 28.728 92.9385 29.1724 92.1514 30.061C91.377 30.9497 90.8818 32.1875 90.666 33.7744H99.4829V33.4316C99.3813 31.8828 98.9688 30.7148 98.2451 29.9277C97.5215 29.1279 96.5186 28.728 95.2363 28.728ZM119.973 46C119.77 45.6064 119.592 44.9653 119.44 44.0767C117.967 45.6128 116.165 46.3809 114.032 46.3809C111.962 46.3809 110.274 45.7905 108.966 44.6099C107.659 43.4292 107.005 41.9692 107.005 40.23C107.005 38.0337 107.817 36.3516 109.442 35.1836C111.08 34.0029 113.416 33.4126 116.45 33.4126H119.288V32.0605C119.288 30.9941 118.989 30.1436 118.393 29.5088C117.796 28.8613 116.888 28.5376 115.669 28.5376C114.616 28.5376 113.752 28.8042 113.08 29.3374C112.407 29.8579 112.07 30.5244 112.07 31.3369H107.443C107.443 30.207 107.817 29.1533 108.566 28.1758C109.315 27.1855 110.331 26.4111 111.613 25.8525C112.908 25.2939 114.349 25.0146 115.936 25.0146C118.348 25.0146 120.271 25.624 121.706 26.8428C123.141 28.0488 123.877 29.75 123.915 31.9463V41.2393C123.915 43.0928 124.175 44.5718 124.696 45.6763V46H119.973ZM114.889 42.6675C115.803 42.6675 116.66 42.4453 117.459 42.001C118.272 41.5566 118.881 40.96 119.288 40.2109V36.3262H116.793C115.079 36.3262 113.791 36.6245 112.927 37.2212C112.064 37.8179 111.632 38.6621 111.632 39.7539C111.632 40.6426 111.924 41.3535 112.508 41.8867C113.105 42.4072 113.898 42.6675 114.889 42.6675Z" fill="#373737"/>
<path d="M131.646 41.125C132.51 41.125 133.176 41.3726 133.646 41.8677C134.116 42.3501 134.351 42.9595 134.351 43.6958C134.351 44.4194 134.116 45.0225 133.646 45.5049C133.176 45.9746 132.51 46.2095 131.646 46.2095C130.821 46.2095 130.167 45.9746 129.685 45.5049C129.203 45.0352 128.961 44.4321 128.961 43.6958C128.961 42.9595 129.196 42.3501 129.666 41.8677C130.136 41.3726 130.796 41.125 131.646 41.125ZM144.577 46H139.949V25.3955H144.577V46ZM139.664 20.0444C139.664 19.3335 139.886 18.7432 140.33 18.2734C140.787 17.8037 141.435 17.5688 142.272 17.5688C143.11 17.5688 143.758 17.8037 144.215 18.2734C144.672 18.7432 144.9 19.3335 144.9 20.0444C144.9 20.7427 144.672 21.3267 144.215 21.7964C143.758 22.2534 143.11 22.4819 142.272 22.4819C141.435 22.4819 140.787 22.2534 140.33 21.7964C139.886 21.3267 139.664 20.7427 139.664 20.0444ZM153.927 25.3955L154.06 27.7759C155.583 25.9351 157.583 25.0146 160.059 25.0146C164.35 25.0146 166.533 27.4712 166.609 32.3843V46H161.982V32.6509C161.982 31.3433 161.696 30.3784 161.125 29.7563C160.566 29.1216 159.646 28.8042 158.364 28.8042C156.498 28.8042 155.107 29.6484 154.193 31.3369V46H149.566V25.3955H153.927Z" fill="url(#paint0_linear_91_7)"/>
<defs>
<linearGradient id="paint0_linear_91_7" x1="89.5" y1="10" x2="89.5" y2="56" gradientUnits="userSpaceOnUse">
<stop stop-color="#2B7AC1"/>
<stop offset="1" stop-color="#3AB26F"/>
</linearGradient>
</defs>
</svg>
